<svg width="24" height="24" viewBox="0 0 24 24" fill="none" xmlns="http://www.w3.org/2000/svg">
<g clip-path="url(#clip0_3_57)">
<path d="M17.3 2.55C15.05 2.55 13.35 3.45 12 5.35C10.65 3.5 8.95 2.6 6.7 2.6C3 2.55 0 5.8 0 9.8C0 13.45 2.7 15.8 5.3 18.05C5.6 18.3 5.95 18.6 6.25 18.9L7.4 19.9C9.6 21.85 10.7 22.85 11.2 23.15C11.45 23.3 11.75 23.4 12 23.4C12.25 23.4 12.55 23.3 12.8 23.15C13.3 22.85 14.2 22.05 16.7 19.75L17.7 18.85C18.05 18.55 18.35 18.25 18.7 18C21.35 15.8 24 13.5 24 9.8C24 5.8 21 2.55 17.3 2.55V2.55Z" fill="#ED4956"/>
</g>
<defs>
<clipPath id="clip0_3_57">
<rect width="24" height="24" fill="white"/>
</clipPath>
</defs>
</svg>
